<svg width="40" height="40" viewBox="0 0 40 40" fill="none" xmlns="http://www.w3.org/2000/svg">
<g clip-path="url(#clip0_1_517)">
<path fill-rule="evenodd" clip-rule="evenodd" d="M35.885 28.3847C35.7689 28.5011 35.631 28.5935 35.4791 28.6565C35.3272 28.7195 35.1644 28.752 35 28.752C34.8356 28.752 34.6728 28.7195 34.5209 28.6565C34.3691 28.5935 34.2311 28.5011 34.115 28.3847L20 14.2672L5.88503 28.3847C5.7688 28.5009 5.63083 28.5931 5.47898 28.656C5.32714 28.7189 5.16438 28.7513 5.00002 28.7513C4.83566 28.7513 4.67291 28.7189 4.52106 28.656C4.36922 28.5931 4.23124 28.5009 4.11502 28.3847C3.99881 28.2685 3.90661 28.1305 3.84372 27.9787C3.78082 27.8268 3.74845 27.6641 3.74845 27.4997C3.74845 27.3354 3.78082 27.1726 3.84372 27.0208C3.90661 26.8689 3.99881 26.7309 4.11502 26.6147L19.115 11.6147C19.2311 11.4983 19.3691 11.406 19.5209 11.3429C19.6728 11.2799 19.8356 11.2475 20 11.2475C20.1644 11.2475 20.3272 11.2799 20.4791 11.3429C20.631 11.406 20.7689 11.4983 20.885 11.6147L35.885 26.6147C36.0014 26.7308 36.0938 26.8688 36.1568 27.0206C36.2198 27.1725 36.2523 27.3353 36.2523 27.4997C36.2523 27.6641 36.2198 27.8269 36.1568 27.9788C36.0938 28.1307 36.0014 28.2686 35.885 28.3847Z" fill="#323232"/>
</g>
<defs>
<clipPath id="clip0_1_517">
<rect width="40" height="40" fill="white" transform="matrix(-1 0 0 -1 40 40)"/>
</clipPath>
</defs>
</svg>
