<svg width="343" height="253" viewBox="0 0 343 253" fill="none" xmlns="http://www.w3.org/2000/svg">
<path d="M219.235 101.838C235.092 101.838 255.683 101.662 271.829 89.0716V243.091V246.034H274.772H336.666H339.61V243.091V8.89774V5.95442H336.666H274.772H272.667L271.987 7.94665C267.467 21.1826 261.125 29.5351 252.666 35.0835C244.11 40.6954 233.101 43.6352 218.861 45.4565L216.292 45.7852V48.376V98.8946V101.838H219.235ZM2.94336 125.994C2.94336 173.729 16.4995 204.685 35.9031 223.698C55.2753 242.681 80.0927 249.38 101.906 249.38C124.209 249.38 149.116 242.687 168.455 223.696C187.821 204.677 201.203 173.719 201.203 125.994C201.203 78.599 187.818 47.7266 168.455 28.7115C149.121 9.72443 124.217 2.94336 101.906 2.94336C80.0849 2.94336 55.2704 9.7311 35.9031 28.7093C16.5025 47.7189 2.94336 78.5878 2.94336 125.994ZM101.906 191.97C94.4239 191.97 88.7148 189.772 84.2733 186.147C79.7827 182.482 76.4057 177.209 73.9107 170.803C68.8952 157.923 67.713 141.163 67.713 125.994C67.713 110.996 68.8942 94.3199 73.9097 81.4813C76.4037 75.0965 79.7817 69.8331 84.2723 66.173C88.7148 62.5521 94.4239 60.3527 101.906 60.3527C109.479 60.3527 115.255 62.5569 119.744 66.1814C124.279 69.8436 127.685 75.1071 130.198 81.4887C135.251 94.3233 136.434 110.995 136.434 125.994C136.434 141.163 135.251 157.919 130.197 170.796C127.684 177.199 124.277 182.471 119.743 186.138C115.254 189.767 109.479 191.97 101.906 191.97Z" stroke="white" stroke-width="5.88672"/>
</svg>
