<svg width="410" height="253" viewBox="0 0 410 253" fill="none" xmlns="http://www.w3.org/2000/svg">
<path d="M219.196 157.846H216.272L216.253 160.769C216.083 186.825 222.552 209.091 237.647 224.844C252.761 240.618 276.062 249.38 308.524 249.38C339.117 249.38 363.652 241.477 380.607 228.088C397.61 214.658 406.817 195.831 406.817 174.506C406.817 152.509 397.778 138.144 387.142 129.331C381.346 124.53 375.078 121.38 369.575 119.522C383.053 112.869 398.788 97.4822 398.788 69.1189C398.788 48.7787 390.065 32.1042 374.781 20.5979C359.578 9.15238 338.07 2.94336 312.539 2.94336C282.893 2.94336 260.632 11.2167 245.791 26.2334C230.959 41.2414 223.947 62.5705 223.947 87.8544V90.7977H226.891H284.435H287.297L287.378 87.9373C287.694 76.7358 291.437 70.2437 295.971 66.4944C300.597 62.6703 306.462 61.3563 311.535 61.3563C316.503 61.3563 321.952 62.5324 326.07 65.4224C330.039 68.2069 333.015 72.7368 333.015 80.1595C333.015 83.4408 332.808 87.9828 329.541 91.7937C326.318 95.5532 319.478 99.2973 304.509 99.2973H291.127H288.183V102.241V145.734V148.677H291.127H307.186C320.7 148.677 328.375 151.697 332.672 155.639C336.913 159.529 338.368 164.787 338.368 170.491C338.368 178.932 334.613 184.032 329.452 187.172C324.105 190.425 317.097 191.636 310.866 191.636C304.256 191.636 296.72 190.491 290.852 186.22C285.152 182.071 280.512 174.591 280.353 160.755L280.32 157.846H277.41H219.196ZM2.94336 125.995C2.94336 173.729 16.4995 204.685 35.9031 223.697C55.2753 242.68 80.0927 249.38 101.906 249.38C124.21 249.38 149.116 242.687 168.455 223.695C187.821 204.677 201.203 173.718 201.203 125.995C201.203 78.599 187.818 47.7267 168.455 28.7116C149.121 9.72438 124.218 2.94336 101.906 2.94336C80.0849 2.94336 55.2714 9.73115 35.9031 28.7092C16.5024 47.7189 2.94336 78.5879 2.94336 125.995ZM101.906 191.971C94.4239 191.971 88.7158 189.771 84.2733 186.146C79.7837 182.481 76.4057 177.209 73.9107 170.803C68.8952 157.922 67.713 141.163 67.713 125.995C67.713 110.995 68.8952 94.3199 73.9097 81.4813C76.4037 75.0966 79.7817 69.8331 84.2723 66.1729C88.7148 62.5522 94.4239 60.3526 101.906 60.3526C109.479 60.3526 115.255 62.557 119.744 66.1814C124.279 69.8436 127.685 75.1072 130.198 81.4888C135.251 94.3233 136.434 110.994 136.434 125.995C136.434 141.164 135.251 157.919 130.197 170.795C127.684 177.198 124.277 182.472 119.743 186.138C115.254 189.766 109.479 191.971 101.906 191.971Z" stroke="white" stroke-width="5.88672"/>
</svg>
