<svg width="403" height="252" viewBox="0 0 403 252" fill="none" xmlns="http://www.w3.org/2000/svg">
<path d="M280.662 124.407L280.649 124.414L280.637 124.421C255.026 139.007 239.729 154.525 230.909 172.122C222.113 189.67 219.933 208.953 219.933 230.693V242.737V245.68H222.876H394.841H397.784V242.737V191.883V188.94H394.841H297.438C298.109 186.53 299.862 183.639 303.817 179.882C309.357 174.623 318.874 167.997 334.696 159.001C335.656 158.495 336.643 157.978 337.654 157.448C361.746 144.827 399.792 124.896 399.792 75.7902C399.792 54.1793 392.419 35.7461 377.494 22.7583C362.62 9.81494 340.603 2.58887 311.87 2.58887C279.519 2.58887 257.238 11.8833 243.068 26.889C228.933 41.8587 223.278 62.082 223.278 83.1506V90.511V93.4543H226.222H286.108H289.052V90.511V85.8271C289.052 75.2005 292.125 69.0788 296.058 65.5641C300.055 61.9914 305.433 60.6673 310.866 60.6673C314.863 60.6673 320.441 60.9497 324.858 63.4274C326.996 64.6272 328.844 66.3338 330.129 68.8164C331.424 71.3168 332.246 74.7918 332.015 79.665L332.013 79.6929L332.012 79.7209C331.713 90.2021 326.597 97.1441 317.592 103.639C313.036 106.924 307.559 110.037 301.291 113.389C299.223 114.496 297.061 115.632 294.826 116.807C290.354 119.158 285.584 121.666 280.662 124.407ZM2.94336 125.64C2.94336 173.375 16.4995 204.33 35.9031 223.343C55.2753 242.326 80.0927 249.026 101.906 249.026C124.21 249.026 149.116 242.333 168.455 223.341C187.821 204.322 201.203 173.364 201.203 125.64C201.203 78.2445 187.818 47.3722 168.455 28.357C149.121 9.36993 124.218 2.58887 101.906 2.58887C80.0849 2.58887 55.2714 9.37665 35.9031 28.3548C16.5024 47.3645 2.94336 78.2334 2.94336 125.64ZM101.906 191.617C94.4239 191.617 88.7158 189.417 84.2733 185.792C79.7837 182.127 76.4057 176.855 73.9107 170.449C68.8952 157.568 67.7129 140.808 67.7129 125.64C67.7129 110.641 68.8942 93.9654 73.9097 81.1268C76.4037 74.742 79.7817 69.4786 84.2723 65.8184C88.7148 62.1976 94.4239 59.9981 101.906 59.9981C109.479 59.9981 115.255 62.2025 119.744 65.827C124.279 69.4891 127.685 74.7526 130.198 81.1342C135.251 93.9688 136.434 110.64 136.434 125.64C136.434 140.809 135.251 157.564 130.197 170.441C127.684 176.844 124.277 182.117 119.743 185.784C115.254 189.412 109.479 191.617 101.906 191.617Z" stroke="white" stroke-width="5.88672"/>
</svg>
