<svg width="789" height="248" viewBox="0 0 789 248" fill="none" xmlns="http://www.w3.org/2000/svg">
<path d="M57.2619 6.77841H66.954V31.61C66.9422 33.9682 66.3467 36.0434 65.1676 37.8356C64.0003 39.616 62.385 41.0073 60.3216 42.0096C58.27 43 55.9059 43.4952 53.2294 43.4952C50.9066 43.4952 48.7842 43.0943 46.8623 42.2925C44.9404 41.479 43.4076 40.2056 42.2638 38.4723C41.1201 36.7273 40.5542 34.4634 40.566 31.6808H50.3996C50.4349 32.5887 50.5882 33.3551 50.8594 33.98C51.1424 34.6049 51.5315 35.0765 52.0267 35.3949C52.5337 35.7014 53.1468 35.8547 53.8661 35.8547C54.5971 35.8547 55.2102 35.6955 55.7055 35.3772C56.2125 35.0588 56.5957 34.5872 56.8551 33.9623C57.1145 33.3256 57.2501 32.5415 57.2619 31.61V6.77841ZM106.704 24.8892C106.704 28.9217 105.92 32.3234 104.352 35.0942C102.784 37.8533 100.667 39.9462 98.0023 41.3729C95.3376 42.7878 92.3663 43.4952 89.0884 43.4952C85.7869 43.4952 82.8039 42.7819 80.1391 41.3552C77.4862 39.9167 75.3756 37.8179 73.8074 35.0588C72.251 32.288 71.4728 28.8981 71.4728 24.8892C71.4728 20.8567 72.251 17.4609 73.8074 14.7019C75.3756 11.931 77.4862 9.83814 80.1391 8.42324C82.8039 6.99654 85.7869 6.28319 89.0884 6.28319C92.3663 6.28319 95.3376 6.99654 98.0023 8.42324C100.667 9.83814 102.784 11.931 104.352 14.7019C105.92 17.4609 106.704 20.8567 106.704 24.8892ZM96.5874 24.8892C96.5874 22.7197 96.2985 20.8921 95.7208 19.4064C95.1548 17.909 94.3118 16.7771 93.1916 16.0107C92.0833 15.2325 90.7155 14.8434 89.0884 14.8434C87.4612 14.8434 86.0876 15.2325 84.9675 16.0107C83.8591 16.7771 83.0161 17.909 82.4383 19.4064C81.8724 20.8921 81.5894 22.7197 81.5894 24.8892C81.5894 27.0587 81.8724 28.8922 82.4383 30.3897C83.0161 31.8753 83.8591 33.0072 84.9675 33.7854C86.0876 34.5518 87.4612 34.935 89.0884 34.935C90.7155 34.935 92.0833 34.5518 93.1916 33.7854C94.3118 33.0072 95.1548 31.8753 95.7208 30.3897C96.2985 28.8922 96.5874 27.0587 96.5874 24.8892ZM121.087 6.77841V43H111.254V6.77841H121.087ZM157.088 6.77841V43H148.881L135.794 23.9695H135.581V43H125.748V6.77841H134.096L146.971 25.7381H147.254V6.77841H157.088ZM193.097 6.77841H202.931V29.9829C202.931 32.7419 202.271 35.1296 200.95 37.1458C199.641 39.1503 197.814 40.7008 195.467 41.7973C193.121 42.8821 190.397 43.4245 187.296 43.4245C184.172 43.4245 181.436 42.8821 179.09 41.7973C176.743 40.7008 174.916 39.1503 173.607 37.1458C172.31 35.1296 171.661 32.7419 171.661 29.9829V6.77841H181.495V29.1339C181.495 30.2541 181.743 31.2563 182.238 32.1406C182.733 33.0131 183.417 33.697 184.289 34.1922C185.174 34.6874 186.176 34.935 187.296 34.935C188.428 34.935 189.43 34.6874 190.303 34.1922C191.175 33.697 191.859 33.0131 192.354 32.1406C192.85 31.2563 193.097 30.2541 193.097 29.1339V6.77841ZM227.13 18.0977C227.036 16.9186 226.594 15.9989 225.804 15.3386C225.025 14.6783 223.84 14.3482 222.249 14.3482C221.235 14.3482 220.403 14.472 219.755 14.7196C219.118 14.9554 218.647 15.2796 218.34 15.6923C218.033 16.105 217.874 16.5766 217.863 17.1072C217.839 17.5435 217.916 17.9385 218.092 18.2922C218.281 18.6341 218.576 18.9466 218.977 19.2296C219.378 19.5008 219.891 19.7484 220.515 19.9724C221.14 20.1964 221.883 20.3969 222.744 20.5737L225.715 21.2104C227.72 21.6349 229.435 22.195 230.862 22.8906C232.289 23.5863 233.456 24.4058 234.364 25.349C235.272 26.2805 235.938 27.3299 236.362 28.4972C236.799 29.6645 237.023 30.9379 237.034 32.3175C237.023 34.6992 236.427 36.7155 235.248 38.3662C234.069 40.0169 232.383 41.2726 230.19 42.1334C228.009 42.9941 225.385 43.4245 222.319 43.4245C219.171 43.4245 216.424 42.9587 214.078 42.0273C211.743 41.0958 209.927 39.6632 208.63 37.7295C207.345 35.784 206.697 33.2961 206.685 30.2658H216.023C216.082 31.3742 216.359 32.3057 216.854 33.0603C217.35 33.8149 218.045 34.3868 218.941 34.7759C219.849 35.165 220.928 35.3595 222.178 35.3595C223.227 35.3595 224.106 35.2298 224.813 34.9704C225.521 34.711 226.057 34.3514 226.423 33.8915C226.788 33.4317 226.977 32.907 226.989 32.3175C226.977 31.7633 226.794 31.2799 226.44 30.8672C226.098 30.4427 225.532 30.0654 224.742 29.7353C223.953 29.3933 222.885 29.075 221.541 28.7802L217.933 28.002C214.726 27.3063 212.197 26.1449 210.346 24.5178C208.506 22.8789 207.593 20.6445 207.604 17.8147C207.593 15.5155 208.206 13.5051 209.444 11.7836C210.694 10.0504 212.421 8.70032 214.626 7.73347C216.843 6.76662 219.384 6.28319 222.249 6.28319C225.173 6.28319 227.702 6.77251 229.836 7.75116C231.97 8.7298 233.615 10.1093 234.771 11.8898C235.938 13.6584 236.527 15.7277 236.539 18.0977H227.13ZM260.106 43H249.495L261.45 6.77841H274.892L286.848 43H276.236L268.313 16.7535H268.03L260.106 43ZM258.125 28.7095H278.076V36.067H258.125V28.7095ZM284.774 14.7019V6.77841H316.256V14.7019H305.361V43H295.669V14.7019H284.774Z" fill="#212529"/>
<g clip-path="url(#clip0_1_136)">
<g clip-path="url(#clip1_1_136)">
<g clip-path="url(#clip2_1_136)">
<mask id="mask0_1_136" style="mask-type:luminance" maskUnits="userSpaceOnUse" x="40" y="58" width="709" height="174">
<path d="M748.636 58.5208H40.0234V231.395H748.636V58.5208Z" fill="white"/>
</mask>
<g mask="url(#mask0_1_136)">
<path d="M41.1538 64.2788H57.3193V108.569H65.2472V64.2788H90.4788V180.82H65.2472V132.328H57.3193V180.82H41.1538V64.2788Z" fill="#323232"/>
<path d="M187.31 122.473C187.31 160.008 174.922 183.567 138.867 183.567C106.095 183.567 93.8545 160.415 93.8545 122.21C93.8545 86.3523 106.095 62.7056 140.4 62.7056C174.705 62.7056 187.31 86.7756 187.31 122.481V122.473ZM128.052 121.986C128.052 148.859 129.561 156.638 136.978 156.638C144.395 156.638 146.795 149.162 146.795 121.699C146.795 96.255 144.481 89.7144 136.893 89.7144C129.94 89.7144 128.044 96.0793 128.044 121.978L128.052 121.986Z" fill="#323232"/>
<path d="M214.725 94.5221H186.319V64.2869H292.997V94.5221H260.86V180.827H214.725V94.5221Z" fill="#323232"/>
<path d="M340.619 145.074C341.726 149.986 344.559 155.576 353.069 155.576C359.533 155.576 363.001 152.868 363.001 148.795C363.001 144.722 361.895 141.504 343.77 137.95C300.267 129.477 296.009 112.371 296.009 97.1255C296.009 75.1079 314.288 58.5049 351.342 58.5049C385.229 58.5049 408.665 71.5541 410.399 95.4245H363.791C362.846 90.3373 360.323 86.4481 352.914 86.4481C347.555 86.4481 344.877 88.6522 344.877 92.0463C344.877 96.1112 349.608 98.1397 361.91 100.52C402.579 108.146 413.449 123.048 413.449 141.855C413.449 167.778 391.067 183.862 354.02 183.862C313.669 183.862 294.329 166.924 291.023 145.074H340.627H340.619Z" fill="#323232"/>
<path d="M457.107 162.02L453.956 180.827H408.912L440.284 64.2869H502.762L530.796 180.827H486.31L482.919 162.02H457.083H457.092H457.107ZM476.888 130.683C475.363 121.611 471.6 104.089 469.718 91.2158H470.269C468.371 104.601 465.468 119.047 463.378 130.683H476.904H476.896H476.888Z" fill="#323232"/>
<path d="M569.243 64.2788V146.863C569.243 153.236 575.042 156.614 580.3 156.614C585.208 156.614 591.038 153.411 591.038 146.863V64.2788H628.781V142.159C628.781 172.682 605.082 184.133 578.465 184.133C551.847 184.133 527.591 171.731 527.591 141.911V64.2788H569.243Z" fill="#323232"/>
<path d="M706.496 140.721V142.007C706.496 164.536 699.737 184.142 673.267 184.142C649.421 184.142 633.952 170.15 633.952 127.097V119.582C633.952 75.1958 653.068 61.356 673.995 61.356C699.93 61.356 706.496 82.8864 706.496 102.708V104.209H676.294V102.3C676.294 92.2061 674.916 88.3408 672.562 88.3408C670.642 88.3408 667.6 92.4218 667.6 118.56V127.001C667.6 154.514 670.224 158.218 672.516 158.218C675.04 158.218 676.425 153.93 676.425 142.75V140.721H706.504H706.496Z" fill="#323232"/>
<path d="M744.695 128.814H730.954V158.626H748.636L745.803 180.82H710.956V64.2788H745.648V86.4721H730.954V106.637H744.695V128.83V128.814Z" fill="#323232"/>
<path d="M302.667 223.68V199.563H306.298V209.066C307.444 207.301 309.163 206.438 311.447 206.423C313.397 206.423 314.907 207.022 315.968 208.212C317.036 209.401 317.57 211.062 317.57 213.186V223.673H313.94V213.706C313.94 210.951 312.747 209.577 310.378 209.577C309.186 209.577 308.21 209.952 307.452 210.679C306.693 211.422 306.306 212.468 306.306 213.809V223.664H302.675L302.66 223.688L302.667 223.68Z" fill="#323232"/>
<path d="M334.735 221.612C333.125 223.273 331.089 224.104 328.65 224.104C326.211 224.104 324.175 223.273 322.541 221.612C320.915 219.951 320.103 217.827 320.103 215.263C320.103 212.699 320.923 210.583 322.541 208.938C324.167 207.285 326.195 206.455 328.65 206.455C331.104 206.455 333.125 207.285 334.735 208.938C336.345 210.592 337.151 212.699 337.151 215.263C337.151 217.827 336.345 219.951 334.735 221.612ZM325.197 219.488C326.064 220.534 327.202 221.053 328.65 221.053C330.098 221.053 331.235 220.534 332.103 219.488C332.97 218.442 333.403 217.028 333.403 215.255C333.403 213.483 332.97 212.1 332.095 211.062C331.22 210.016 330.074 209.497 328.665 209.497C327.257 209.497 326.079 210.008 325.212 211.038C324.345 212.069 323.911 213.474 323.911 215.255C323.911 217.036 324.345 218.442 325.212 219.488H325.197Z" fill="#323232"/>
<path d="M345.567 224.104C342.221 224.104 340.549 222.259 340.549 218.562V210.024H338.025V206.862H340.65L341.494 201.903H344.227V206.862H350.723V210.024H344.227V218.457C344.227 220.007 344.777 220.782 345.875 220.782C346.914 220.782 347.834 219.816 348.663 217.867L351.489 219.352C350.096 222.515 348.121 224.104 345.574 224.104H345.567Z" fill="#323232"/>
<path d="M352.65 231.387C351.039 231.387 349.7 230.932 348.647 229.997L349.995 227.043C350.645 227.825 351.357 228.225 352.108 228.225C353.123 228.225 353.626 227.554 353.626 226.212V206.854H357.257V226.284C357.257 228.081 356.823 229.383 355.956 230.189C355.089 230.98 353.982 231.379 352.65 231.395V231.379V231.387ZM355.437 204.019C354.833 204.043 354.261 203.82 353.827 203.396C353.626 203.197 353.455 202.948 353.347 202.661C353.239 202.39 353.176 202.094 353.192 201.79C353.192 201.495 353.239 201.191 353.347 200.912C353.455 200.641 353.626 200.378 353.827 200.177C354.268 199.77 354.841 199.53 355.437 199.53C356.033 199.53 356.607 199.754 357.048 200.177C357.265 200.385 357.435 200.633 357.543 200.912C357.651 201.191 357.714 201.495 357.698 201.79C357.698 202.087 357.651 202.39 357.527 202.645C357.404 202.9 357.249 203.164 357.032 203.364C356.815 203.571 356.576 203.739 356.297 203.851C356.018 203.963 355.732 204.01 355.43 204.01L355.437 204.019Z" fill="#323232"/>
<path d="M366.276 224.104C364.411 224.104 362.909 223.616 361.755 222.666C360.601 221.708 360.02 220.422 360.02 218.793C360.02 217.316 360.625 216.062 361.824 215.032C363.024 214.001 364.534 213.49 366.346 213.49C368.157 213.49 369.776 214.097 371.061 215.327V213.282C371.061 212.076 370.759 211.15 370.17 210.487C369.582 209.833 368.731 209.497 367.631 209.497C365.409 209.497 364.031 210.664 363.497 212.996L360.168 212.26C360.609 210.463 361.499 209.034 362.823 207.996C364.147 206.95 365.796 206.431 367.771 206.431C369.923 206.431 371.618 207.013 372.873 208.18C374.111 209.346 374.739 211.055 374.739 213.291V223.664H371.201V221.54C370.008 223.225 368.375 224.072 366.292 224.072L366.276 224.095V224.104ZM366.95 221.324C368.561 221.324 369.931 220.494 371.054 218.833V218.314C369.938 216.925 368.561 216.23 366.95 216.23C366.013 216.23 365.239 216.469 364.666 216.94C364.388 217.148 364.17 217.428 364.015 217.747C363.86 218.066 363.783 218.418 363.783 218.761C363.783 219.104 363.845 219.472 364 219.792C364.147 220.111 364.372 220.398 364.65 220.614C365.231 221.085 365.982 221.324 366.958 221.324L366.942 221.341L366.95 221.324Z" fill="#323232"/>
<path d="M378.253 223.68V206.854H381.791V209.769C382.698 207.644 384.23 206.582 386.437 206.582C387.738 206.582 388.821 207.013 389.657 207.9C390.51 208.778 390.935 209.96 390.935 211.438C390.935 212.316 390.78 213.203 390.501 214.041L387.172 213.69C387.242 213.234 387.281 212.771 387.304 212.301C387.304 210.559 386.607 209.697 385.221 209.697C384.284 209.697 383.487 210.208 382.853 211.239C382.218 212.268 381.892 213.618 381.892 215.319V223.68H378.261H378.253Z" fill="#323232"/>
<path d="M279.983 209.441C282.693 207.892 286.393 205.767 286.393 199.579H281.903C281.903 203.037 280.269 203.971 277.799 205.4C275.09 206.95 271.389 209.074 271.389 215.264H275.879C275.879 211.805 277.513 210.871 279.983 209.441Z" fill="#FF3C00"/>
<path d="M287.74 208.012C287.74 211.47 286.106 212.404 283.637 213.833C280.927 215.383 277.227 217.507 277.227 223.697H281.717C281.717 220.238 283.351 219.304 285.821 217.875C288.53 216.326 292.231 214.201 292.231 208.012H287.74Z" fill="#FF3C00"/>
<path d="M46.2946 205.767H51.0792L57.3503 223.656H53.4637L52.3489 220.31H45.0249L43.91 223.656H40.0234L46.2946 205.767ZM51.3966 217.467L48.7953 209.673H48.5707L45.9694 217.467H51.3966Z" fill="#323232"/>
<path d="M64.3801 214.712C64.3801 208.938 67.5544 205.536 72.5791 205.536C76.3727 205.536 79.4154 207.533 79.7637 211.973H76.1482C75.6526 209.753 74.2436 208.826 72.4551 208.826C69.4358 208.826 68.1661 211.406 68.1661 214.704C68.1661 218.002 69.4048 220.606 72.4551 220.606C74.2358 220.606 75.6526 219.687 76.1482 217.436H79.7637C79.4154 221.908 76.3727 223.904 72.5326 223.904C67.5544 223.904 64.3801 220.502 64.3801 214.704V214.712Z" fill="#323232"/>
<path d="M81.2888 214.712C81.2888 209.218 84.556 205.536 89.5651 205.536C94.5743 205.536 97.8414 209.218 97.8414 214.712C97.8414 220.207 94.5743 223.912 89.5651 223.912C84.556 223.912 81.2888 220.183 81.2888 214.712ZM89.5651 220.614C92.4142 220.614 94.0246 218.266 94.0246 214.712C94.0246 211.158 92.4142 208.835 89.5651 208.835C86.716 208.835 85.1057 211.134 85.1057 214.712C85.1057 218.29 86.716 220.614 89.5651 220.614Z" fill="#323232"/>
<path d="M100.18 205.767H104.043L111.026 217.523H111.104V205.767H114.82V223.656H110.81L103.973 212.133H103.896V223.656H100.18V205.767Z" fill="#323232"/>
<path d="M117.801 205.767H129.267V209.09H121.509V213.282H127.927V216.373H121.509V223.656H117.793V205.767H117.801Z" fill="#323232"/>
<path d="M131.048 205.767H142.885V209.09H134.756V213.099H142.142V216.086H134.756V220.327H143.133V223.649H131.048V205.76V205.767Z" fill="#323232"/>
<path d="M145.51 205.767H152.524C157.131 205.767 159.136 208.243 159.136 211.749C159.136 214.281 158.067 216.326 155.668 217.22L159.307 223.656H155.637L152.339 217.699H149.218V223.656H145.502V205.767H145.51ZM152.4 214.377C154.429 214.377 155.327 213.33 155.327 211.741C155.327 210.152 154.436 209.082 152.4 209.082H149.226V214.369H152.4V214.377Z" fill="#323232"/>
<path d="M161.482 205.767H173.32V209.09H165.19V213.099H172.576V216.086H165.19V220.327H173.567V223.649H161.482V205.76V205.767Z" fill="#323232"/>
<path d="M175.952 205.767H179.815L186.799 217.523H186.876V205.767H190.593V223.656H186.581L179.745 212.133H179.668V223.656H175.952V205.767Z" fill="#323232"/>
<path d="M192.977 214.712C192.977 208.938 196.151 205.536 201.175 205.536C204.969 205.536 208.012 207.533 208.36 211.973H204.745C204.25 209.753 202.84 208.826 201.051 208.826C198.032 208.826 196.763 211.406 196.763 214.704C196.763 218.002 198.001 220.606 201.051 220.606C202.832 220.606 204.25 219.687 204.745 217.436H208.36C208.012 221.908 204.969 223.904 201.129 223.904C196.151 223.904 192.977 220.502 192.977 214.704V214.712Z" fill="#323232"/>
<path d="M210.614 205.767H222.451V209.09H214.322V213.099H221.707V216.086H214.322V220.327H222.698V223.649H210.614V205.76V205.767Z" fill="#323232"/>
<path d="M231.354 205.767H238.392C242.255 205.767 244.012 207.533 244.012 210.24C244.012 212.181 243.146 213.282 241.512 213.818C244.09 214.536 245.205 216.197 245.205 218.418C245.205 221.309 243.27 223.656 238.686 223.656H231.354V205.767ZM238.245 213.027C239.359 213.027 240.304 212.412 240.304 210.959C240.304 209.506 239.359 208.994 238.245 208.994H235.071V213.035H238.245V213.027ZM238.57 220.439C240.653 220.439 241.373 219.288 241.373 217.987C241.373 216.685 240.653 215.455 238.57 215.455H235.079V220.439H238.57Z" fill="#323232"/>
<path d="M251.468 217.084L245.198 205.767H249.409L253.373 213.387L257.361 205.767H261.572L255.301 217.084V223.649H251.461V217.084H251.468Z" fill="#323232"/>
</g>
</g>
</g>
</g>
<defs>
<clipPath id="clip0_1_136">
<rect width="708.66" height="173.73" fill="white" transform="translate(40 58)"/>
</clipPath>
<clipPath id="clip1_1_136">
<rect width="708.66" height="173.73" fill="white" transform="translate(40 58)"/>
</clipPath>
<clipPath id="clip2_1_136">
<rect width="708.613" height="173.73" fill="white" transform="translate(40.0234 58)"/>
</clipPath>
</defs>
</svg>
