<svg width="341" height="8" viewBox="0 0 341 8" fill="none" xmlns="http://www.w3.org/2000/svg">
<path d="M170.687 1.3681C167.167 1.43754 164.326 4.27709 164.256 7.79635H156.048C155.976 4.23316 153.065 1.3667 149.485 1.3667C145.904 1.3667 142.993 4.23316 142.922 7.79635H134.714C134.643 4.23316 131.731 1.3667 128.151 1.3667C124.571 1.3667 121.66 4.23316 121.588 7.79635L113.38 7.79635C113.309 4.23316 110.398 1.3667 106.817 1.3667C103.237 1.3667 100.326 4.23316 100.254 7.79635L92.0469 7.79635C91.9751 4.23316 89.0645 1.3667 85.4839 1.3667C81.9038 1.3667 78.9927 4.23316 78.9214 7.79635L70.7129 7.79635C70.6417 4.23316 67.7306 1.3667 64.1505 1.3667C60.5699 1.3667 57.6592 4.23316 57.5875 7.79635L49.3795 7.79635C49.3078 4.23316 46.3972 1.3667 42.8171 1.3667C39.2365 1.3667 36.3258 4.23316 36.2541 7.79635L28.0461 7.79635C27.9744 4.23317 25.0632 1.3667 21.4831 1.3667C17.9025 1.3667 14.9919 4.23317 14.9201 7.79635L6.71265 7.79635C6.64093 4.23317 3.7298 1.3667 0.149719 1.3667C0.099823 1.3667 0.0498962 1.36727 0 1.36842V-4.76837e-07H341.606L341.606 1.36753C341.572 1.36701 341.538 1.36675 341.505 1.36675C337.924 1.36675 335.013 4.23318 334.942 7.79633L326.734 7.79633C326.662 4.23315 323.751 1.3667 320.171 1.3667C316.591 1.3667 313.68 4.23315 313.608 7.79633L305.4 7.79633C305.329 4.23315 302.418 1.3667 298.837 1.3667C295.257 1.3667 292.346 4.23315 292.275 7.79633L284.066 7.79633C283.995 4.23315 281.084 1.3667 277.503 1.3667C273.923 1.3667 271.013 4.23315 270.941 7.79633L262.733 7.79633C262.661 4.23315 259.751 1.3667 256.17 1.3667C252.59 1.3667 249.679 4.23315 249.608 7.79633L241.4 7.79634C241.328 4.23315 238.417 1.3667 234.837 1.3667C231.256 1.3667 228.345 4.23315 228.274 7.79634L220.066 7.79634C219.994 4.23315 217.083 1.3667 213.503 1.3667C209.923 1.3667 207.012 4.23315 206.94 7.79634L198.732 7.79634C198.66 4.23315 195.75 1.3667 192.169 1.3667C188.589 1.3667 185.678 4.23315 185.606 7.79634L177.399 7.79634C177.328 4.26105 174.462 1.41166 170.92 1.36722C170.886 1.3667 170.852 1.3668 170.819 1.3668C170.812 1.3668 170.806 1.3668 170.8 1.3668C170.762 1.36701 170.724 1.36722 170.687 1.3681Z" fill="#CCCCCC"/>
</svg>
