<svg width="341" height="8" viewBox="0 0 341 8" fill="none" xmlns="http://www.w3.org/2000/svg">
<path d="M-0.89858 6.42955C2.68174 6.42955 5.5926 3.56316 5.66427 6.88641e-06L13.8723 6.52763e-06C13.944 3.56319 16.8548 6.42965 20.4352 6.42965C24.0155 6.42965 26.9263 3.56319 26.998 5.95392e-06L35.2058 5.59513e-06C35.2775 3.56319 38.1883 6.42965 41.7687 6.42965C45.349 6.42965 48.2598 3.56319 48.3315 5.02139e-06L56.5397 4.6626e-06C56.6114 3.56319 59.522 6.42965 63.1027 6.42965C66.6827 6.42965 69.5934 3.56319 69.6651 4.08886e-06L77.8731 3.73009e-06C77.9448 3.56319 80.8555 6.42965 84.4356 6.42965C88.0162 6.42965 90.9268 3.56319 90.9985 3.15635e-06L99.2065 2.79756e-06C99.2783 3.56319 102.189 6.42965 105.769 6.42965C109.35 6.42965 112.261 3.56319 112.332 2.22382e-06L120.54 1.86504e-06C120.612 3.56319 123.523 6.42965 127.103 6.42965C130.684 6.42965 133.594 3.56319 133.666 1.2913e-06L141.874 9.32517e-07C141.946 3.56318 144.856 6.42965 148.437 6.42965C152.017 6.42965 154.928 3.56318 155 3.58775e-07L163.207 0C163.279 3.53527 166.144 6.38469 169.686 6.42908C169.72 6.4296 169.754 6.42955 169.787 6.42955C169.792 6.42955 169.796 6.42955 169.8 6.42955C169.84 6.42939 169.88 6.42887 169.919 6.42794C173.439 6.3585 176.28 3.51924 176.35 6.88641e-06L184.558 6.52763e-06C184.63 3.56319 187.541 6.42965 191.121 6.42965C194.701 6.42965 197.613 3.56319 197.684 5.95392e-06L205.892 5.59513e-06C205.964 3.56319 208.875 6.42965 212.455 6.42965C216.035 6.42965 218.946 3.56319 219.018 5.02139e-06L227.226 4.6626e-06C227.297 3.56319 230.208 6.42965 233.789 6.42965C237.369 6.42965 240.28 3.56319 240.351 4.08886e-06L248.559 3.73009e-06C248.631 3.56319 251.542 6.42965 255.122 6.42965C258.702 6.42965 261.613 3.56319 261.685 3.15635e-06L269.893 2.79756e-06C269.964 3.56319 272.875 6.42965 276.456 6.42965C280.036 6.42965 282.947 3.56319 283.019 2.22382e-06L291.227 1.86504e-06C291.298 3.56319 294.209 6.42965 297.789 6.42965C301.37 6.42965 304.28 3.56319 304.352 1.2913e-06L312.56 9.32517e-07C312.632 3.56318 315.543 6.42965 319.123 6.42965C322.703 6.42965 325.614 3.56318 325.686 3.58775e-07L333.893 0C333.965 3.56318 336.876 6.42965 340.456 6.42965C340.506 6.42965 340.556 6.42908 340.606 6.42794V7.79635H-0.999794L-1 6.42882C-0.966255 6.42934 -0.932447 6.42955 -0.89858 6.42955Z" fill="white"/>
</svg>
