<svg width="20" height="20" viewBox="0 0 20 20" fill="none" xmlns="http://www.w3.org/2000/svg">
<path d="M8.12476 0.5H11.8748C12.0016 0.5 12.0988 0.537951 12.1892 0.620117C12.2598 0.68438 12.3077 0.756596 12.3347 0.845703L12.3542 0.941406L12.6541 3.26367L12.6921 3.55957L12.9705 3.66699C13.1601 3.73993 13.3375 3.82622 13.5027 3.92676C13.6825 4.03624 13.8586 4.15393 14.031 4.2793L14.2576 4.44434L14.5164 4.33691L16.6912 3.43652V3.4375L16.697 3.43457C16.8236 3.38031 16.9327 3.3766 17.0466 3.41309C17.1603 3.44963 17.2482 3.51632 17.321 3.63281L19.1667 6.84863L19.1746 6.8623C19.2414 6.97102 19.2604 7.07584 19.2351 7.20215C19.2153 7.30113 19.1767 7.37706 19.1169 7.44043L19.0505 7.5L19.0476 7.50195L17.1726 8.92676L16.9382 9.10449L16.9802 9.39551C16.9938 9.49062 16.9997 9.5795 16.9998 9.66211V10.3379C16.9997 10.3945 16.9915 10.461 16.9695 10.5381L16.8757 10.8662L17.1472 11.0732L19.0222 12.498L19.0251 12.5C19.1245 12.5745 19.1833 12.666 19.2097 12.7979C19.2287 12.8927 19.2226 12.9754 19.1902 13.0566L19.1492 13.1377L19.1423 13.1494L17.2937 16.3447C17.2219 16.4581 17.1298 16.5323 16.9998 16.5771C16.8747 16.6203 16.7654 16.6161 16.6472 16.5654L16.6453 16.5645L14.5203 15.665L14.2595 15.5547L14.031 15.7207C13.8615 15.8439 13.6836 15.96 13.4978 16.0684C13.3158 16.1745 13.1358 16.2647 12.9578 16.3389L12.6912 16.4492L12.6541 16.7363L12.3542 19.0586C12.3362 19.1938 12.2834 19.2942 12.1892 19.3799C12.0988 19.462 12.0016 19.5 11.8748 19.5H8.12476C7.99806 19.4999 7.90158 19.462 7.81128 19.3799C7.71737 19.2945 7.6635 19.1951 7.64526 19.0605H7.64624L7.34644 16.7363L7.30737 16.4404L7.03003 16.333L6.75464 16.2139C6.66599 16.1705 6.58042 16.1235 6.4978 16.0732C6.31801 15.9638 6.1418 15.846 5.96948 15.7207L5.74292 15.5557L5.48413 15.6631L3.30933 16.5625L3.30347 16.5654C3.17665 16.6198 3.06698 16.6236 2.95288 16.5869C2.83874 16.5502 2.75052 16.4836 2.67749 16.3662L0.83374 13.1514L0.825928 13.1377L0.784912 13.0566C0.752532 12.9754 0.746415 12.8927 0.765381 12.7979C0.791793 12.666 0.850598 12.5745 0.949951 12.5L0.952881 12.498L2.82788 11.0732L3.06128 10.8955L3.02026 10.6045C3.00668 10.5094 2.99978 10.4205 2.99976 10.3379V9.66211C2.99978 9.5795 3.00668 9.49062 3.02026 9.39551L3.06128 9.10449L2.82788 8.92676L0.952881 7.50195L0.949951 7.5C0.850599 7.42546 0.791793 7.33401 0.765381 7.20215C0.74011 7.07579 0.759049 6.97107 0.825928 6.8623L0.83374 6.84863L2.67749 3.63281C2.75043 3.51588 2.83897 3.44972 2.95288 3.41309C3.06698 3.37641 3.17665 3.38022 3.30347 3.43457L3.30933 3.43652L5.48413 4.33691L5.74292 4.44434L5.96948 4.2793C6.13884 4.15614 6.31604 4.03996 6.50171 3.93164C6.68381 3.82541 6.86458 3.73536 7.04272 3.66113L7.30933 3.55078L7.34644 3.26367L7.64526 0.938477C7.66363 0.804436 7.71759 0.705341 7.81128 0.620117C7.90158 0.538024 7.99806 0.500067 8.12476 0.5ZM8.52905 1.93457L8.22144 4.26172C7.78511 4.39929 7.37224 4.57923 6.98511 4.80566C6.60287 5.02924 6.24746 5.29114 5.91772 5.58887L3.74097 4.68848L3.33472 4.51953L3.11597 4.90137L2.14136 6.60156L1.92065 6.98633L2.27612 7.25098L4.14819 8.64453C4.10771 8.80696 4.07628 8.97004 4.05444 9.13379C4.01786 9.40818 3.99976 9.69722 3.99976 10C3.99976 10.2874 4.01805 10.5678 4.05444 10.8408C4.07636 11.0052 4.10847 11.169 4.14917 11.332L2.27319 12.751L1.92261 13.0166L2.14136 13.3984L3.11597 15.0986L3.33667 15.4834L3.74585 15.3105L5.91382 14.3896C6.24435 14.6993 6.60032 14.9693 6.98511 15.1943C7.37103 15.4201 7.78272 15.5989 8.21753 15.7363L8.50366 18.0605L8.55737 18.5H11.4138L11.4705 18.0654L11.7781 15.7373C12.2146 15.5997 12.6281 15.4208 13.0154 15.1943C13.3974 14.9709 13.7512 14.7077 14.0808 14.4102L16.2585 15.3115L16.6648 15.4805L16.8835 15.0986L17.8591 13.3984L18.0779 13.0166L17.7263 12.751L15.8533 11.335C15.893 11.1774 15.9248 11.0164 15.946 10.8516C15.9822 10.5715 15.9998 10.2876 15.9998 10C15.9998 9.71245 15.9822 9.42849 15.946 9.14844C15.9247 8.98326 15.8931 8.82193 15.8533 8.66406L17.7263 7.24902L18.0779 6.9834L17.8591 6.60156L16.8835 4.90137L16.6628 4.5166L16.2546 4.68945L14.0857 5.60938C13.7554 5.30008 13.3998 5.03052 13.0154 4.80566C12.6289 4.57962 12.2165 4.40018 11.781 4.2627L11.4968 1.93945L11.4421 1.5H8.58667L8.52905 1.93457ZM10.0505 7C10.8844 7.0001 11.5822 7.28948 12.1716 7.87891C12.761 8.46839 13.0505 9.166 13.0505 10C13.0505 10.834 12.761 11.5316 12.1716 12.1211C11.5822 12.7105 10.8844 12.9999 10.0505 13C9.1975 13 8.49721 12.7095 7.9187 12.124C7.33681 11.5349 7.05054 10.8361 7.05054 10C7.05054 9.16393 7.33681 8.46505 7.9187 7.87598C8.49721 7.29052 9.1975 7 10.0505 7Z" fill="#1C1B1F" stroke="black"/>
</svg>
