<svg width="17" height="13" viewBox="0 0 17 13" fill="none" xmlns="http://www.w3.org/2000/svg">
<path d="M16.5101 1.89588H15.8572C15.6147 1.89588 15.2719 2.24009 15.2719 2.46046V10.4476C15.2719 10.6683 15.6147 10.969 15.8572 10.969H16.5101V12.8649H10.594V10.969H11.8323V2.57298H11.7716L8.88 12.8649H6.6413L3.78701 2.57298H3.71478V10.969H4.95304V12.8649H0V10.969H0.634233C0.895427 10.969 1.23826 10.6683 1.23826 10.4476V2.46046C1.23826 2.24009 0.895427 1.89588 0.634233 1.89588H0V2.47547e-06H6.19356L8.22701 7.44808H8.28296L10.3352 2.47547e-06H16.5101V1.89588Z" fill="#757E9A"/>
</svg>
